<svg width="34" height="22" viewBox="0 0 34 22" fill="none" xmlns="http://www.w3.org/2000/svg">
<g clip-path="url(#clip0_3707_2711)">
<path d="M0.0288086 2.76611C0.0288086 1.2503 1.27174 0.0214844 2.80498 0.0214844H30.5667C32.1 0.0214844 33.3429 1.2503 33.3429 2.76611V19.2339C33.3429 20.7497 32.1 21.9785 30.5667 21.9785H2.80498C1.27174 21.9785 0.0288086 20.7497 0.0288086 19.2339V2.76611Z" fill="#D8E3F3"/>
<path d="M28.6999 6.90424H26.9547C26.427 6.90424 26.0211 7.06474 25.7776 7.58638L22.4495 15.09H24.8035C24.8035 15.09 25.2094 14.0868 25.2906 13.8461C25.5341 13.8461 27.8476 13.8461 28.1723 13.8461C28.2535 14.1269 28.4564 15.0498 28.4564 15.0498H30.5669L28.6999 6.90424ZM25.94 12.1608C26.1429 11.6792 26.8329 9.87357 26.8329 9.87357C26.8329 9.91369 27.0358 9.39206 27.117 9.11117L27.2794 9.83344C27.2794 9.83344 27.7258 11.7996 27.807 12.2009H25.94V12.1608Z" fill="#3362AB"/>
<path d="M22.6116 12.4035C22.6116 14.0888 21.0693 15.2123 18.6746 15.2123C17.6599 15.2123 16.6858 15.0117 16.1582 14.7709L16.4829 12.9251L16.767 13.0455C17.4976 13.3665 17.9846 13.4869 18.8776 13.4869C19.527 13.4869 20.2169 13.2461 20.2169 12.6844C20.2169 12.3232 19.9328 12.0825 19.0399 11.6812C18.1876 11.28 17.0511 10.6379 17.0511 9.47428C17.0511 7.86923 18.634 6.78583 20.8663 6.78583C21.7187 6.78583 22.4492 6.94633 22.8957 7.14696L22.571 8.91251L22.4087 8.75201C22.0028 8.5915 21.4751 8.431 20.704 8.431C19.8517 8.47112 19.4458 8.83226 19.4458 9.15327C19.4458 9.5144 19.9328 9.79529 20.704 10.1564C22.0028 10.7583 22.6116 11.4405 22.6116 12.4035Z" fill="#3362AB"/>
<path d="M2.80493 6.98582L2.84552 6.82532H6.33603C6.82308 6.82532 7.18836 6.98582 7.31013 7.50746L8.08129 11.1188C7.31013 9.19276 5.52428 7.62784 2.80493 6.98582Z" fill="#F9B50B"/>
<path d="M12.9925 6.90585L9.46137 15.0515H7.06672L5.03735 8.23001C6.4985 9.15291 7.71612 10.5975 8.16258 11.6006L8.4061 12.4433L10.5978 6.86572H12.9925V6.90585Z" fill="#3362AB"/>
<path d="M13.9259 6.86572H16.1582L14.7377 15.0515H12.5054L13.9259 6.86572Z" fill="#3362AB"/>
</g>
<defs>
<clipPath id="clip0_3707_2711">
<rect width="33.3141" height="21.957" fill="white" transform="translate(0.0288086 0.0214844)"/>
</clipPath>
</defs>
</svg>
